<svg xmlns="http://www.w3.org/2000/svg" width="27" height="26" viewBox="0 0 27 26" fill="none" class="mdl-js">
    <path d="M13.2867 0.10532C13.1707 0.166374 12.609 0.581543 12.0352 1.02724C11.4674 1.47904 10.9668 1.86369 10.9363 1.89421C10.8997 1.91863 10.2159 1.84537 9.41616 1.73547C8.61031 1.61947 7.87162 1.5462 7.76783 1.56452C7.49311 1.61336 7.08408 1.86369 6.93757 2.06516C6.87041 2.16896 6.57127 2.84666 6.27823 3.57321L5.741 4.90419L4.40402 5.44147C3.67143 5.74064 2.99379 6.0398 2.89611 6.10696C2.69465 6.25349 2.45045 6.66256 2.40161 6.9312C2.3833 7.03499 2.45656 7.77375 2.57255 8.57966L2.77401 10.0389L1.91322 11.1378C1.44314 11.7423 1.00358 12.3345 0.942535 12.4505C0.783808 12.7497 0.802122 13.2686 0.97306 13.5861C1.04632 13.7265 1.47977 14.3188 1.94374 14.8988L2.77401 15.9672L2.57255 17.4264C2.45656 18.2263 2.3833 18.965 2.40161 19.0688C2.45045 19.3374 2.69465 19.7465 2.89611 19.893C2.99379 19.9602 3.67143 20.2594 4.40402 20.5585L5.741 21.0958L6.27823 22.4268C6.57127 23.1533 6.87041 23.831 6.93757 23.9348C7.08408 24.1363 7.49311 24.3866 7.76783 24.4355C7.87162 24.4538 8.61031 24.3805 9.41616 24.2645C10.2159 24.1546 10.8997 24.0814 10.9363 24.1058C10.9668 24.1363 11.4674 24.521 12.0352 24.9728C12.609 25.4185 13.1768 25.8336 13.2989 25.8947C13.5919 26.0351 14.1108 26.0351 14.3856 25.8947C14.5016 25.8336 15.0937 25.4001 15.6981 24.9239L16.8031 24.0569L18.2683 24.2645C19.7823 24.4782 19.9533 24.4782 20.3501 24.2767C20.6736 24.1058 20.8263 23.831 21.394 22.4329L21.9312 21.0958L23.2499 20.5646C24.6846 19.9907 24.8677 19.8869 25.0753 19.5572C25.3134 19.1726 25.3134 18.9528 25.0997 17.4081L24.8982 15.9672L25.7285 14.8988C26.7358 13.6166 26.8335 13.4457 26.8335 13C26.8335 12.5543 26.7358 12.3834 25.7285 11.1012L24.8982 10.0328L25.0997 8.56745C25.3195 7.00446 25.3195 6.83961 25.0692 6.44276C24.8677 6.11307 24.6785 6.00928 23.2499 5.43537L21.9312 4.90419L21.394 3.5671C20.8263 2.16896 20.6736 1.89421 20.3501 1.72326C19.9533 1.52178 19.7823 1.52178 18.2683 1.73547L16.8031 1.94306L15.6981 1.07608C15.0937 0.599859 14.5016 0.166374 14.3856 0.10532C14.1169 -0.0351048 13.5736 -0.0351048 13.2867 0.10532ZM18.2195 9.19021C18.9032 9.47716 19.2268 10.2953 18.9032 10.9486C18.8238 11.1134 17.8287 12.1452 15.9912 13.983C13.0181 16.9441 13.0608 16.9075 12.4808 16.9075C12.0352 16.9075 11.7238 16.6633 10.2281 15.1552C8.64694 13.5617 8.61031 13.5129 8.65915 12.8718C8.7202 12.0048 9.63594 11.4675 10.4601 11.8094C10.6005 11.8705 11.0645 12.2796 11.62 12.8352L12.5541 13.7632L14.8007 11.5225C16.1926 10.1304 17.1206 9.24516 17.2549 9.19021C17.5357 9.0681 17.9325 9.0681 18.2195 9.19021Z" fill="#1F2323"/>
<script xmlns=""/></svg>