<svg xmlns="http://www.w3.org/2000/svg" width="15" height="15" viewBox="0 0 15 15" fill="none" class="mdl-js">
    <path d="M5.33333 8.04167L6.95833 9.66667L9.66667 5.875M14 7.5C14 8.41578 13.545 9.22611 12.8495 9.71578C12.9244 10.1439 12.8951 10.5838 12.764 10.9981C12.6328 11.4125 12.4038 11.7892 12.0962 12.0962C11.7892 12.4038 11.4125 12.6328 10.9981 12.764C10.5838 12.8951 10.1439 12.9244 9.71578 12.8495C9.46604 13.2052 9.13428 13.4954 8.74858 13.6957C8.36288 13.896 7.9346 14.0004 7.5 14C6.58422 14 5.77389 13.545 5.28422 12.8495C4.85611 12.9244 4.41626 12.895 4.00191 12.7639C3.58755 12.6328 3.21088 12.4037 2.90378 12.0962C2.5962 11.7892 2.36715 11.4125 2.23603 10.9981C2.1049 10.5838 2.07557 10.1439 2.1505 9.71578C1.79482 9.46604 1.50456 9.13428 1.30429 8.74858C1.10402 8.36288 0.999647 7.9346 1 7.5C1 6.58422 1.455 5.77389 2.1505 5.28422C2.07557 4.85611 2.1049 4.41625 2.23603 4.00188C2.36715 3.58751 2.5962 3.21085 2.90378 2.90378C3.21088 2.59625 3.58755 2.36724 4.00191 2.23612C4.41626 2.10499 4.85611 2.07563 5.28422 2.1505C5.534 1.79487 5.86577 1.50464 6.25146 1.30437C6.63716 1.10411 7.06542 0.999707 7.5 1C8.41578 1 9.22611 1.455 9.71578 2.1505C10.1439 2.07563 10.5837 2.10499 10.9981 2.23612C11.4124 2.36724 11.7891 2.59625 12.0962 2.90378C12.4037 3.21088 12.6328 3.58755 12.7639 4.00191C12.895 4.41626 12.9244 4.85611 12.8495 5.28422C13.2052 5.53396 13.4954 5.86572 13.6957 6.25142C13.896 6.63712 14.0004 7.0654 14 7.5Z" stroke="#497B7D" stroke-linecap="round" stroke-linejoin="round"/>
<script xmlns=""/></svg>