<svg xmlns="http://www.w3.org/2000/svg" width="183" height="39" viewBox="0 0 183 39" fill="none" class="mdl-js">
<path d="M0 8.8755L5.70865 1.52079L10.2892 4.72133C13.3833 6.88323 13.5277 9.49775 12.0113 11.4513C10.3652 13.5721 7.49844 14.1149 4.59156 12.0837L0 8.8755ZM7.59176 5.83357L4.89962 9.30199L5.73645 9.8867C6.70541 10.5637 7.57903 10.0946 8.40614 9.029C9.05485 8.19323 9.5407 7.19534 8.41758 6.41059L7.59176 5.83357Z" fill="#92F7FA"/>
<path d="M22.2431 15.9526L20.892 18.0582L16.7222 15.6495L16.2102 16.4474L20.9056 19.1597L19.1411 21.0113L11.3855 16.5314L16.3917 8.72961L24.2524 13.2703L22.9013 15.3759L18.5213 12.8458L18.0733 13.5439L22.2431 15.9526Z" fill="#92F7FA"/>
<path d="M28.3407 23.9854L25.5116 22.6524L24.5972 23.6701L20.9229 21.9389L28.1687 15.1548L33.129 17.492L32.0804 27.1961L28.0632 25.3033L28.3407 23.9854ZM27.3408 20.7619L28.7983 21.4487C29.0401 20.4617 29.2817 19.4166 29.4504 18.54L29.3525 18.4939C28.7796 19.18 27.9261 20.1106 27.3408 20.7619Z" fill="#92F7FA"/>
<path d="M34.01 27.8479L37.5535 19.3553L41.4823 20.831L38.8951 27.0315L43.4723 28.7508L42.1091 30.89L34.01 27.8479Z" fill="#92F7FA"/>
<path d="M45.0491 28.9392L49.0791 30.1007C49.0554 30.4871 49.1597 30.9646 49.8663 31.1683C50.4027 31.3229 50.7542 31.2072 50.8496 30.9093C50.9489 30.5989 50.9289 30.3491 49.5077 29.6547C46.0952 27.9932 46.1434 26.6375 46.5011 25.5202C47.0178 23.9064 48.9251 23.1273 51.9999 24.0135C54.813 24.8243 56.3649 26.3157 55.9484 28.1076L52.167 27.0177C52.2078 26.6226 52.0898 26.2768 51.4749 26.0995C51.03 25.9713 50.7559 26.0686 50.6764 26.3169C50.581 26.6148 50.9259 26.8769 51.8908 27.3449C55.0876 28.8765 55.6407 30.2291 55.1995 31.6071C54.5913 33.5064 52.3558 34.1503 49.281 33.2641C45.9314 32.2986 44.8112 30.6198 45.0491 28.9392Z" fill="#92F7FA"/>
<path d="M69.5214 36.0358L66.407 35.5347L65.8413 36.7597L61.7967 36.1089L66.6688 27.6285L72.1291 28.507L74.0789 38.0849L69.6568 37.3735L69.5214 36.0358ZM67.5829 33.2236L69.1872 33.4817C69.1183 32.4705 69.0316 31.4038 68.9263 30.5183L68.8184 30.501C68.4788 31.3148 67.9449 32.4396 67.5829 33.2236Z" fill="#92F7FA"/>
<path d="M76.1381 38.2108L76.8707 29.1034L82.5429 29.5142C86.3743 29.7916 87.9572 31.9361 87.7626 34.3552C87.5514 36.9814 85.4235 38.8832 81.8239 38.6226L76.1381 38.2108ZM80.8767 31.8137L80.5312 36.1087L81.5675 36.1838C82.7674 36.2706 83.2461 35.4335 83.3523 34.114C83.4355 33.079 83.2901 31.9885 81.8994 31.8878L80.8767 31.8137Z" fill="#92F7FA"/>
<path d="M90.0809 39L89.9117 29.8675L95.5994 29.7726C99.4414 29.7086 101.229 31.703 101.274 34.1289C101.323 36.7622 99.3919 38.8447 95.7823 38.9049L90.0809 39ZM94.1675 32.2101L94.2473 36.5169L95.2864 36.4996C96.4896 36.4795 96.8837 35.6035 96.8592 34.2804C96.8399 33.2426 96.5875 32.1698 95.193 32.193L94.1675 32.2101Z" fill="#92F7FA"/>
<path d="M112.284 31.8121L112.557 34.2636L107.703 34.7512L107.806 35.6801L113.273 35.1311L113.056 37.6187L104.026 38.5257L103.013 29.4425L112.165 28.5233L112.438 30.9747L107.339 31.4869L107.429 32.2998L112.284 31.8121Z" fill="#92F7FA"/>
<path d="M116.172 37.1353L114.322 28.1716L119.905 27.1345C123.676 26.4339 125.803 28.1011 126.295 30.4821C126.828 33.0668 125.311 35.4375 121.768 36.0957L116.172 37.1353ZM118.944 29.772L119.817 33.9992L120.836 33.8097C122.017 33.5903 122.244 32.6624 121.976 31.3637C121.766 30.3451 121.319 29.3307 119.951 29.585L118.944 29.772Z" fill="#92F7FA"/>
<path d="M135.434 32.866L132.349 24.2137L137.738 22.4843C141.378 21.3161 143.72 22.7013 144.539 24.9995C145.429 27.4945 144.255 30.035 140.836 31.1325L135.434 32.866ZM137.154 25.2193L138.609 29.2996L139.593 28.9837C140.733 28.6178 140.828 27.6697 140.381 26.4161C140.031 25.4328 139.447 24.4834 138.126 24.9075L137.154 25.2193Z" fill="#92F7FA"/>
<path d="M153.951 24.7238L151.064 25.9403L151.306 27.2577L147.557 28.8376L146.674 19.2155L151.735 17.0827L158.942 24.04L154.843 25.7673L153.951 24.7238ZM150.697 23.3978L152.184 22.7711C151.537 21.9647 150.843 21.1214 150.239 20.4389L150.139 20.481C150.331 21.3373 150.541 22.5546 150.697 23.3978Z" fill="#92F7FA"/>
<path d="M156.136 14.974L159.851 13.0925L164.384 21.1506L160.668 23.0321L156.136 14.974Z" fill="#92F7FA"/>
<path d="M167.827 19.2936L162.741 11.5386L166.328 9.42051L170.042 15.0825L174.221 12.6148L175.223 14.9271L167.827 19.2936Z" fill="#92F7FA"/>
<path d="M183 9.52233L179.618 11.9045L177.695 9.44612C177.58 9.30028 177.499 9.26098 177.286 9.18476L170.783 6.7521L174.692 3.99866C175.846 4.62413 176.669 5.17542 177.743 5.80831C177.401 4.74024 177.159 3.90877 176.789 2.5214L180.368 0L180.928 6.69997C180.941 6.80383 180.978 6.93893 181.117 7.11602L183 9.52233Z" fill="#92F7FA"/>
<script xmlns=""/></svg>