<svg xmlns="http://www.w3.org/2000/svg" width="153" height="35" viewBox="0 0 153 35" fill="none" class="mdl-js">
<path d="M2.53841 32.5901L5.91416 30.102C6.22563 30.3626 6.69004 30.5781 7.28189 30.1419C7.73126 29.8107 7.84287 29.458 7.6486 29.1955C7.44623 28.922 7.2238 28.7817 5.79338 29.481C2.36362 31.1637 1.25012 30.2771 0.521595 29.2927C-0.530726 27.8708 -0.0526277 25.8617 2.52303 23.9633C4.87947 22.2265 7.05912 21.9216 8.32105 23.375L5.15354 25.7096C4.84494 25.43 4.4834 25.3076 3.96827 25.6873C3.59562 25.962 3.51453 26.2415 3.67642 26.4603C3.8707 26.7228 4.29664 26.6117 5.26486 26.1347C8.45687 24.5427 9.92546 24.9478 10.824 26.162C12.0625 27.8355 11.2751 30.0217 8.69948 31.9201C5.89366 33.9881 3.8128 33.8314 2.53841 32.5901Z" fill="#92F7FA"/>
<path d="M19.9818 22.8068L17.2578 24.3804L17.6457 25.7276L14.108 27.7713L12.156 17.8379L16.9318 15.0789L24.8506 21.5652L20.9828 23.7996L19.9818 22.8068ZM16.6094 21.7698L18.0126 20.9591C17.2816 20.1874 16.4996 19.3822 15.8251 18.7349L15.7307 18.7894C16.0162 19.6615 16.3612 20.9077 16.6094 21.7698Z" fill="#92F7FA"/>
<path d="M33.5955 17.8166L28.8239 19.8913L21.7572 12.522L25.8419 10.746L28.4575 14.0139C29.3336 15.1014 29.7018 15.6384 30.144 16.2767L30.169 16.2659C30.0234 15.5579 29.88 14.9231 29.666 13.5478L28.9272 9.40449L33.0618 7.60674L33.5955 17.8166Z" fill="#92F7FA"/>
<path d="M45.4315 7.3833L46.2014 9.84996L41.5572 11.2937L41.849 12.2284L47.0786 10.6027L47.3761 13.202L38.7383 15.8872L35.8854 6.74765L44.6404 4.02597L45.4103 6.49262L40.532 8.00916L40.7873 8.82705L45.4315 7.3833Z" fill="#92F7FA"/>
<path d="M54.3365 1.91845L58.49 1.31926L59.3204 7.05228C59.4296 7.80592 59.7792 8.31878 60.6288 8.19621C61.5728 8.06003 61.6197 7.33883 61.532 6.73323L60.7016 1.0002L64.855 0.401008L65.666 5.99945C66.0442 8.61027 64.887 10.316 60.9223 10.8879C57.0925 11.4404 55.5179 10.0739 55.1358 7.43615L54.3365 1.91845Z" fill="#92F7FA"/>
<path d="M68.8888 9.76464L68.5802 0.196827L74.5859 0.00390143C77.0916 -0.0765937 78.8061 1.09276 78.8715 3.11776C78.9407 5.26508 77.288 6.43376 74.932 6.50945L72.9165 6.57419L73.0151 9.63209L68.8888 9.76464ZM72.7837 2.45623L72.8393 4.18224L73.7654 4.15249C74.4735 4.12974 74.8158 3.75142 74.7996 3.24857C74.7855 2.81367 74.4996 2.40111 73.7097 2.42648L72.7837 2.45623Z" fill="#92F7FA"/>
<path d="M89.2445 10.2609L90.1091 3.32517L87.2426 2.96931L87.5622 0.405512L97.4191 1.6292L97.0995 4.193L94.2601 3.8405L93.3955 10.7763L89.2445 10.2609Z" fill="#92F7FA"/>
<path d="M106.675 3.4156C110.133 4.24247 111.867 6.82435 111.184 9.6674C110.527 12.4047 108.221 14.1324 104.153 13.1598C100.483 12.2822 99.0032 9.69126 99.6666 6.92755C100.286 4.34898 102.448 2.40498 106.675 3.4156ZM106.017 5.7472C104.957 5.49376 104.36 6.28786 103.979 7.87467C103.63 9.32926 103.697 10.4499 104.889 10.7351C106.055 11.0139 106.558 10.0294 106.888 8.65416C107.288 6.988 107.196 6.02916 106.017 5.7472Z" fill="#92F7FA"/>
<path d="M120.65 8.43672L129.044 11.9148L128.145 14.0748C126.154 15.0311 124.028 16.7711 122.447 19.046L118.282 17.32C119.862 14.9416 122.639 13.2657 124.001 12.8289L119.585 10.9986L120.65 8.43672Z" fill="#92F7FA"/>
<path d="M136.565 15.6117C139.522 17.2146 139.888 19.9042 138.698 22.0909C137.443 24.3971 135.259 25.7044 132.062 23.9717C128.757 22.1806 128.739 19.6488 129.962 17.4023C131.243 15.0483 133.44 13.9179 136.565 15.6117ZM135.503 17.6202C134.856 17.2697 134.31 18.1031 133.633 19.3458C132.866 20.7558 132.489 21.6192 133.112 21.9567C133.698 22.2747 134.235 21.5444 135.029 20.0866C135.712 18.832 136.173 17.9836 135.503 17.6202Z" fill="#92F7FA"/>
<path d="M146.707 21.781C148.557 23.1028 148.435 24.7213 147.65 25.8159C146.461 27.4744 144.815 27.3858 143.375 26.3568C141.635 25.1142 141.437 23.5681 142.389 22.2413C143.388 20.8481 144.912 20.4988 146.707 21.781ZM145.632 23.1867C145.311 22.9572 144.971 23.1497 144.567 23.7136C144.075 24.3991 144.141 24.6805 144.441 24.8942C144.695 25.0763 144.976 25.0592 145.452 24.3958C145.951 23.6992 145.931 23.4004 145.632 23.1867ZM142.718 30.5197L141.289 29.4987L151.582 25.4975L153 26.5106L142.718 30.5197ZM151.163 29.6796C153.013 31.0014 152.891 32.6199 152.105 33.7146C150.916 35.3731 149.27 35.2844 147.83 34.2555C146.09 33.0128 145.893 31.4667 146.844 30.1399C147.844 28.7467 149.368 28.3974 151.163 29.6796ZM150.087 31.0853C149.766 30.8558 149.427 31.0483 149.022 31.6122C148.53 32.2977 148.597 32.5791 148.896 32.7928C149.151 32.9749 149.431 32.9578 149.907 32.2944C150.407 31.5978 150.386 31.299 150.087 31.0853Z" fill="#92F7FA"/>
<script xmlns=""/></svg>